<svg viewBox="0 0 512 512" xmlns="http://www.w3.org/2000/svg">
  <defs>
    <linearGradient id="bg" x1="0%" y1="0%" x2="100%" y2="100%">
      <stop offset="0%" stop-color="#78350F"/>
      <stop offset="100%" stop-color="#451A03"/>
    </linearGradient>
    <linearGradient id="cf" x1="0%" y1="0%" x2="100%" y2="100%">
      <stop offset="0%" stop-color="#FCD34D"/>
      <stop offset="40%" stop-color="#FBBF24"/>
      <stop offset="100%" stop-color="#E5A800"/>
    </linearGradient>
    <linearGradient id="rind" x1="0%" y1="0%" x2="0%" y2="100%">
      <stop offset="0%" stop-color="#E5A800"/>
      <stop offset="100%" stop-color="#CC8800"/>
    </linearGradient>
    <radialGradient id="hole" cx="40%" cy="35%" r="60%">
      <stop offset="0%" stop-color="#CC9400"/>
      <stop offset="100%" stop-color="#996E00"/>
    </radialGradient>
  </defs>
  <!-- Background circle -->
  <circle cx="256" cy="256" r="256" fill="url(#bg)"/>
  <!-- Cheese wedge -->
  <path d="M100 370 L256 110 L412 370 Z" fill="url(#cf)"/>
  <!-- Rind -->
  <path d="M96 372 L100 370 L412 370 L416 372 L414 382 L98 382 Z" fill="url(#rind)"/>
  <!-- Holes -->
  <ellipse cx="215" cy="275" rx="30" ry="26" fill="url(#hole)"/>
  <ellipse cx="310" cy="310" rx="22" ry="20" fill="url(#hole)"/>
  <ellipse cx="256" cy="200" rx="18" ry="16" fill="url(#hole)"/>
  <circle cx="170" cy="330" r="14" fill="url(#hole)"/>
  <circle cx="350" cy="345" r="16" fill="url(#hole)"/>
  <circle cx="280" cy="160" r="10" fill="url(#hole)"/>
  <!-- Highlight -->
  <path d="M145 270 Q165 210 200 185" stroke="#FEF3C7" stroke-width="6" fill="none" opacity="0.35" stroke-linecap="round"/>
</svg>
